<?xml version="1.0" standalone="no"?>
<!DOCTYPE svg PUBLIC "-//W3C//DTD SVG 20010904//EN"
 "http://www.w3.org/TR/2001/REC-SVG-20010904/DTD/svg10.dtd">
<svg version="1.0" xmlns="http://www.w3.org/2000/svg"
 width="1024.000000pt" height="1024.000000pt" viewBox="0 0 1024.000000 1024.000000"
 preserveAspectRatio="xMidYMid meet">

<g transform="translate(0.000000,1024.000000) scale(0.100000,-0.100000)"
fill="#000000" stroke="none">
<path d="M4810 8030 c-194 -20 -394 -60 -571 -114 -608 -184 -1129 -548 -1525
-1066 -465 -607 -653 -1385 -533 -2213 134 -929 767 -1760 1649 -2168 157 -72
436 -166 600 -203 498 -109 1049 -88 1538 60 434 132 885 396 1202 706 335
327 581 718 723 1150 119 360 174 793 148 1158 -25 340 -99 634 -245 965 -339
769 -1047 1377 -1886 1619 -274 79 -463 106 -775 111 -132 2 -278 0 -325 -5z
m0 -600 c11 -11 20 -29 20 -40 0 -23 -33 -60 -55 -60 -22 0 -55 37 -55 60 0
23 33 60 55 60 8 0 24 -9 35 -20z m739 -140 c29 -93 82 -150 164 -176 31 -10
57 -21 57 -25 0 -4 -24 -15 -52 -24 -29 -10 -68 -29 -87 -43 -36 -27 -77 -105
-87 -164 -4 -21 -10 -38 -14 -38 -4 0 -11 17 -15 38 -18 98 -87 182 -167 202
-24 6 -52 15 -63 19 l-20 9 20 7 c145 51 191 92 220 198 10 37 19 67 21 67 1
0 12 -32 23 -70z m-1340 -64 c37 -151 119 -233 274 -272 38 -9 65 -20 60 -24
-4 -4 -30 -13 -58 -19 -65 -16 -154 -56 -183 -84 -32 -30 -68 -102 -88 -179
-21 -77 -31 -90 -39 -52 -19 88 -48 164 -75 201 -36 49 -122 95 -212 114 -63
13 -73 25 -30 35 179 39 254 104 297 259 24 87 25 89 34 79 5 -5 14 -31 20
-58z m2433 -301 c205 -43 466 -244 614 -470 155 -238 236 -478 237 -700 1
-214 -69 -360 -208 -433 -46 -25 -59 -27 -175 -27 -117 0 -130 2 -202 31 -228
93 -445 310 -580 579 -105 209 -151 382 -152 570 0 168 38 287 118 367 87 87
202 114 348 83z m-3208 -120 c8 -43 61 -98 106 -111 45 -13 47 -27 5 -43 -59
-21 -93 -58 -111 -117 -8 -30 -17 -54 -19 -54 -2 0 -11 24 -19 53 -20 67 -61
106 -135 127 l-26 7 34 19 c79 45 97 61 121 111 13 28 27 50 31 47 4 -2 10
-20 13 -39z m1657 -236 c47 -25 43 -103 -6 -115 -19 -5 -32 -1 -51 17 -31 29
-31 53 1 84 28 28 29 29 56 14z m808 -470 c6 -28 10 -53 9 -53 -7 -4 -191
-116 -513 -314 -192 -119 -452 -278 -577 -355 -207 -126 -227 -141 -217 -158
6 -11 16 -22 23 -25 12 -4 1291 632 1322 657 8 7 22 -13 46 -63 19 -40 56
-108 81 -151 48 -80 54 -97 38 -97 -6 0 -63 -29 -128 -63 -65 -35 -226 -119
-358 -187 -132 -67 -325 -166 -430 -220 -104 -54 -307 -157 -450 -230 -143
-73 -264 -137 -270 -141 -13 -13 86 -112 160 -161 32 -21 91 -48 129 -60 64
-19 68 -22 45 -31 -13 -5 -53 -10 -89 -10 -216 0 -435 214 -535 523 -37 115
-45 277 -18 365 19 60 19 60 113 118 52 32 199 118 325 191 127 73 451 260
720 415 270 156 504 291 520 300 l30 17 6 -107 c4 -59 12 -131 18 -160z
m-2767 104 c27 -24 23 -69 -8 -90 -30 -19 -50 -11 -73 29 -13 23 -13 29 2 52
20 30 52 34 79 9z m1024 -139 c20 -29 11 -69 -19 -88 -26 -17 -71 12 -75 48
-7 60 62 89 94 40z m-502 -346 c21 -30 20 -54 -4 -78 -37 -37 -90 -15 -90 37
0 57 64 84 94 41z m-634 -200 c1 -31 33 -99 57 -120 11 -10 37 -24 59 -31 47
-17 50 -37 9 -50 -68 -22 -125 -86 -125 -141 0 -36 -18 -42 -26 -9 -18 76 -73
132 -156 157 -30 9 -20 21 42 49 61 29 99 74 115 140 9 33 25 36 25 5z m916
-430 c0 -105 5 -149 22 -211 62 -220 211 -427 383 -534 l62 -38 -84 -39 c-106
-50 -154 -51 -242 -8 -269 134 -439 538 -335 798 24 60 40 76 148 137 25 14
45 26 45 26 0 1 1 -59 1 -131z m3384 -198 c17 -32 8 -73 -19 -86 -53 -27 -100
30 -67 80 21 33 70 36 86 6z m-511 -107 c16 -58 52 -97 118 -128 30 -15 51
-30 47 -34 -5 -4 -31 -16 -57 -25 -57 -21 -104 -78 -113 -138 -8 -50 -21 -48
-35 5 -19 73 -76 126 -161 151 -30 9 -20 22 26 40 51 20 122 92 131 133 15 68
23 67 44 -4z m-3265 -150 c18 -89 52 -162 121 -258 l54 -74 -52 -29 c-29 -16
-92 -51 -142 -77 -49 -26 -92 -50 -94 -52 -3 -1 6 -15 20 -29 l24 -26 -44 22
c-148 74 -260 317 -200 431 13 24 291 183 296 169 1 -3 9 -37 17 -77z m2086
-54 c116 -64 162 -210 104 -327 -81 -163 -294 -189 -418 -52 -48 53 -66 96
-66 158 0 77 25 136 80 185 61 55 97 67 186 63 52 -2 82 -9 114 -27z m-2590
-109 c-21 -145 33 -295 147 -410 38 -37 88 -77 113 -90 l44 -23 -84 -40 c-101
-48 -143 -51 -216 -14 -171 87 -280 376 -191 508 17 25 185 142 194 135 1 -1
-2 -31 -7 -66z m3121 -350 c401 -19 809 -81 1132 -172 85 -24 147 -46 147 -53
0 -20 -122 -216 -191 -307 -198 -262 -416 -474 -672 -652 -91 -63 -117 -76
-117 -57 0 5 -40 84 -88 177 -134 254 -384 750 -463 914 l-69 145 28 6 c40 10
78 10 293 -1z m-1105 -66 c-3 -9 -32 -52 -65 -97 -62 -87 -170 -240 -340 -483
-58 -82 -139 -196 -181 -254 -41 -58 -145 -203 -229 -322 -85 -120 -159 -218
-165 -218 -22 1 -263 127 -364 190 -161 101 -335 237 -469 365 -68 64 -123
120 -123 123 0 4 42 32 93 63 475 290 993 484 1637 614 194 39 215 41 206 19z
m359 -74 c12 0 14 -120 12 -732 l-2 -732 -40 -10 c-22 -5 -152 -9 -290 -9
-205 -1 -278 3 -405 21 -184 26 -315 54 -314 66 0 5 46 72 102 150 223 311
617 865 655 921 120 177 242 335 255 330 7 -3 20 -5 27 -5z m507 -690 c55
-107 143 -278 195 -379 52 -101 91 -186 86 -191 -21 -18 -442 -160 -476 -160
-4 0 -7 251 -7 558 l0 557 51 -95 c28 -52 96 -183 151 -290z"/>
<path d="M6560 6668 c-74 -21 -126 -81 -148 -170 -44 -176 50 -459 228 -682
103 -129 211 -207 339 -242 85 -24 156 -8 217 48 61 56 79 110 79 233 0 121
-27 230 -86 349 -89 178 -180 289 -310 375 -129 87 -230 115 -319 89z"/>
<path d="M5454 4460 c-34 -13 -54 -50 -54 -98 0 -37 6 -50 35 -79 32 -32 39
-35 78 -30 50 7 107 61 107 102 0 81 -88 137 -166 105z"/>
</g>
</svg>
